<svg xmlns="http://www.w3.org/2000/svg" viewBox="0 0 34 34"><defs><style>.cls-1,.cls-2,.cls-3{fill:#fff;}.cls-1,.cls-2{stroke:#000;stroke-miterlimit:10;}.cls-1{stroke-width:0.75px;}</style></defs><title>dark_mode_icon</title><g id="Sun"><line class="cls-1" x1="17" x2="17" y2="6"/><line class="cls-1" x1="17" y1="28" x2="17" y2="34"/><line class="cls-1" y1="17" x2="6" y2="17"/><line class="cls-1" x1="28" y1="16.5" x2="34" y2="16.5"/><line class="cls-1" x1="4.24" y1="5.14" x2="8.48" y2="9.39"/><line class="cls-1" x1="25.76" y1="24.74" x2="30.01" y2="28.98"/><line class="cls-1" x1="8.62" y1="24.74" x2="4.38" y2="28.98"/><line class="cls-1" x1="30.01" y1="5.14" x2="25.76" y2="9.39"/><circle id="Sun-2" data-name="Sun" class="cls-2" cx="17" cy="17" r="10"/></g><g id="Moon"><path id="Crescent" class="cls-3" d="M20,10a10.19,10.19,0,0,0-1.68.15,10,10,0,0,1-.68,19.56A10.23,10.23,0,0,0,20,30a10,10,0,0,0,0-20Z" transform="translate(-3 -3)"/></g></svg>